<?xml version="1.0" encoding="UTF-8" standalone="no"?>
<svg
   xmlns:dc="http://purl.org/dc/elements/1.1/"
   xmlns:cc="http://creativecommons.org/ns#"
   xmlns:rdf="http://www.w3.org/1999/02/22-rdf-syntax-ns#"
   xmlns:svg="http://www.w3.org/2000/svg"
   xmlns="http://www.w3.org/2000/svg"
   xmlns:sodipodi="http://sodipodi.sourceforge.net/DTD/sodipodi-0.dtd"
   xmlns:inkscape="http://www.inkscape.org/namespaces/inkscape"
   inkscape:version="1.0 (4035a4fb49, 2020-05-01)"
   sodipodi:docname="labels.svg"
   id="svg6"
   version="1.1"
   width="24"
   viewBox="0 0 24 24"
   height="24">
  <metadata
     id="metadata12">
    <rdf:RDF>
      <cc:Work
         rdf:about="">
        <dc:format>image/svg+xml</dc:format>
        <dc:type
           rdf:resource="http://purl.org/dc/dcmitype/StillImage" />
      </cc:Work>
    </rdf:RDF>
  </metadata>
  <defs
     id="defs10" />
  <sodipodi:namedview
     inkscape:current-layer="svg6"
     inkscape:window-maximized="1"
     inkscape:window-y="27"
     inkscape:window-x="0"
     inkscape:cy="13.649386"
     inkscape:cx="5.9345129"
     inkscape:zoom="27.783404"
     showgrid="false"
     id="namedview8"
     inkscape:window-height="1103"
     inkscape:window-width="1920"
     inkscape:pageshadow="2"
     inkscape:pageopacity="0"
     guidetolerance="10"
     gridtolerance="10"
     objecttolerance="10"
     borderopacity="1"
     bordercolor="#666666"
     pagecolor="#ffffff" />
  <path
     id="path2"
     fill="none"
     d="M0 0h24v24H0V0z" />
  <path
     d="m 12,2 -5.5,9 h 11 z m 0.0032,2.5793336 3.162168,5.1774349 H 8.8246403 Z M 17.5,13 C 15.01,13 13,15.01 13,17.5 13,19.99 15.01,22 17.5,22 19.99,22 22,19.99 22,17.5 22,15.01 19.99,13 17.5,13 Z m 0,7.422901 c -1.613441,0 -2.922901,-1.30946 -2.922901,-2.922901 0,-1.613441 1.30946,-2.922901 2.922901,-2.922901 1.613441,0 2.922901,1.30946 2.922901,2.922901 0,1.613441 -1.30946,2.922901 -2.922901,2.922901 z M 3,21.5 h 8 v -8 H 3 Z m 1.5507238,-6.449276 h 4.8985524 v 4.898552 H 4.5507238 Z"
     id="path4" />
</svg>
