<?xml version="1.0" encoding="UTF-8" standalone="no"?>
<svg
   xmlns:dc="http://purl.org/dc/elements/1.1/"
   xmlns:cc="http://creativecommons.org/ns#"
   xmlns:rdf="http://www.w3.org/1999/02/22-rdf-syntax-ns#"
   xmlns:svg="http://www.w3.org/2000/svg"
   xmlns="http://www.w3.org/2000/svg"
   xmlns:sodipodi="http://sodipodi.sourceforge.net/DTD/sodipodi-0.dtd"
   xmlns:inkscape="http://www.inkscape.org/namespaces/inkscape"
   height="16"
   viewBox="0 0 16 16"
   width="16"
   version="1.1"
   id="svg6"
   sodipodi:docname="rotate-clockwise.svg"
   inkscape:version="1.0 (4035a4fb49, 2020-05-01)">
  <metadata
     id="metadata12">
    <rdf:RDF>
      <cc:Work
         rdf:about="">
        <dc:format>image/svg+xml</dc:format>
        <dc:type
           rdf:resource="http://purl.org/dc/dcmitype/StillImage" />
        <dc:title />
      </cc:Work>
    </rdf:RDF>
  </metadata>
  <defs
     id="defs10" />
  <sodipodi:namedview
     inkscape:document-rotation="0"
     pagecolor="#ffffff"
     bordercolor="#666666"
     borderopacity="1"
     objecttolerance="10"
     gridtolerance="10"
     guidetolerance="10"
     inkscape:pageopacity="0"
     inkscape:pageshadow="2"
     inkscape:window-width="1920"
     inkscape:window-height="1103"
     id="namedview8"
     showgrid="false"
     inkscape:zoom="1"
     inkscape:cx="5.9252179"
     inkscape:cy="5.6917675"
     inkscape:window-x="0"
     inkscape:window-y="27"
     inkscape:window-maximized="1"
     inkscape:current-layer="svg6">
    <inkscape:grid
       type="xygrid"
       id="grid837" />
  </sodipodi:namedview>
  <path
     d="M 0,0 H 24 V 24 H 0 Z"
     fill="none"
     id="path2" />
  <path
     d="M 13.890649,8.3956682 C 13.764923,7.3676702 13.358161,6.3766507 12.692551,5.5187532 L 11.642367,6.568938 c 0.399365,0.5546752 0.650819,1.183307 0.754357,1.8267302 z M 6.9952067,1 6.9990567,3.2704701 C 4.0851638,3.6328579 2.1093514,6.1178024 2.1093514,9.135235 c 0,3.017433 2.2556788,5.502377 5.1769676,5.864765 V 13.506075 C 5.1859494,13.151083 3.588485,11.331749 3.588485,9.135235 c 0,-2.1965136 1.3102023,-4.0158479 3.4105719,-4.3708399 L 7,7 10.764465,4 Z m 3.5895783,11.736925 c -0.554674,0.399366 -1.1759091,0.658215 -1.8193322,0.761754 v 1.493926 c 1.0279976,-0.125727 2.0264112,-0.525093 2.8843092,-1.190703 z m 2.107766,0.01479 c 0.66561,-0.857894 1.072372,-1.848914 1.198098,-2.8769109 h -1.493925 c -0.103538,0.6434209 -0.354992,1.2720529 -0.754357,1.8341229 z"
     id="path4"
     style="stroke-width:1"
     sodipodi:nodetypes="cccccccsccscccccccccccccc" />
</svg>
